<?xml version="1.0" encoding="UTF-8"?>
<svg id="Layer_1" xmlns="http://www.w3.org/2000/svg" version="1.1" viewBox="0 0 127.6 159.5">
  <!-- Generator: Adobe Illustrator 29.0.1, SVG Export Plug-In . SVG Version: 2.1.0 Build 192)  -->
  <defs>
    <style>
      .st0 {
        fill: #1e1e1e;
      }

      .st1, .st2 {
        fill: #ffae00;
      }

      .st2 {
        display: none;
      }
    </style>
  </defs>
  <path class="st2" d="M64.2,60l17,17c1.5,1.5,1.5,4,0,5.5l-17,17-17-16.9c-1.5-1.6-1.5-4.1,0-5.6l17-17M47.1,82.5h0M64.2,43l-8.5,8.5-17,17h0v.2c-5.9,6.2-5.9,15.9,0,22.1h0v.2h0l17,16.9,8.5,8.4,8.5-8.5,17-17c6.2-6.2,6.2-16.3,0-22.5l-17-17-8.5-8.5h0v.2Z"/>
  <path class="st2" d="M76,39.2c2.4,0,4.7.3,7.1.9l3.9,3.9c-1.9-1-3.9-1.6-6-2h0c-1.1-.2-2.3-.3-3.4-.3-5.4,0-10.7,1.6-15.2,4.5-4,2.4-8.6,3.7-13.3,3.7s-6.4-.6-9.5-1.8l3.3-3.3c2.3.6,4.7.9,7,.9,4.4,0,8.8-1.1,12.7-3.2,4.1-2.1,8.7-3.2,13.3-3.2M76,27.2h0c-6.5,0-13,1.6-18.8,4.6h0c-2.2,1.2-4.6,1.8-7.1,1.8s-2.6-.2-3.9-.5l-6.7-1.8-4.9,4.9-3.3,3.3-12.8,12.8,16.8,6.8c4.5,1.8,9.2,2.7,14,2.7,6.9,0,13.6-1.9,19.5-5.5h.2l.2-.2c2.5-1.6,5.6-2.6,8.6-2.6h1.1c1.1.3,2,.6,2.7.9l69.3,36.2-55.3-55.3-3.9-3.9-2.4-2.4-3.2-.8c-3.3-.8-6.6-1.2-10-1.2h0v.2h0Z"/>
  <path class="st1" d="M118,54.4h0c0,0-51.5-51.4-51.5-51.4l-2.8-2.6-8.9,8.9-14.9,14.9-2.8,2.8-4,4-3.2,3.2-15,15-4,4c-14.5,14.6-14.5,38.4,0,53l14,14,18.1,18.1,11.8,11.8,9,9,9-9,36.2-36.3,7.6-7.6c14.2-14.2,14.6-36.9,1.4-51.8ZM19.9,97.3c-9.7-9.8-9.7-25.5,0-35.3l7.1-7.1v49.5l-7.1-7.1ZM63.8,141.3l-11.8-11.8-11.4-11.4h46.3l-23.1,23.2ZM107.8,97.1h-.2v.3l-4.2,4.2v-44.3l4.4,4.4c9.8,9.8,9.8,25.6,0,35.4Z"/>
  <path class="st0" d="M47.3,34.9l-4.3,4.3c6.2.8,12.5-.5,17.8-3.8,5.3-3.5,11.5-5.2,17.9-4.9l-1.8-1.8-.8-.8c-5.2,0-10.4,1.1-15,3.5-4.2,2.3-9,3.5-13.9,3.5h.2,0Z"/>
  <path class="st0" d="M58.7,29.3c3.8-2.3,7.9-3.9,12.3-4.7l-6.8-6.7-15,15c3.4-.6,6.7-1.9,9.5-3.7h0Z"/>
  <path class="st0" d="M81.2,38.2c2.2.4,4.3,1.2,6.4,2.1l-4.1-4.1c-7.2-1.8-14.9-1-21.5,2.5-6.5,3.5-13.9,4.3-21,2.4l-3.5,3.5c7.9,3.2,16.8,2.4,24.1-2,5.7-3.8,12.8-5.4,19.7-4.6h0v.2Z"/>
  <path class="st0" d="M20,97.5l14.1,14.1h0l18.2,18.2,11.9,11.9,36.4-36.5h0l7.6-7.6c9.8-9.8,9.8-25.7,0-35.6l-11.6-11.6h0c-8-7.5-19.5-9.8-29.7-6.1l29.6,29.5c3.3,3.3,3.3,8.6,0,11.9l-9.5,9.5h0l-22.8,22.8-18.1-18.1h0l-14.2-14.2c-3.3-3.3-3.3-8.6,0-11.9l12.3-12.2,13.2-13.2c-7.2,2.1-15,1.5-21.7-2l-4.7,4.7-11.1,11.1c-9.7,9.8-9.7,25.6,0,35.5h0v-.2Z"/>
  <path class="st0" d="M46.1,82.7l18.1,18,18-18c1.6-1.6,1.6-4.2,0-5.8h0l-18-18-18,18c-1.6,1.6-1.6,4.2,0,5.9h0Z"/>
</svg>